<svg xmlns="http://www.w3.org/2000/svg" xmlns:xlink="http://www.w3.org/1999/xlink" width="100" zoomAndPan="magnify" viewBox="0 0 75 37.5" height="50" preserveAspectRatio="xMidYMid meet" version="1.0"><defs><g/><clipPath id="42ff212516"><path d="M 6.792969 9.328125 L 22.332031 9.328125 L 22.332031 27.832031 L 6.792969 27.832031 Z M 6.792969 9.328125 " clip-rule="nonzero"/></clipPath></defs><g clip-path="url(#42ff212516)"><path fill="#000000" d="M 18.351562 15.503906 L 17.320312 15.503906 L 17.933594 14.78125 C 18.074219 14.816406 18.222656 14.835938 18.375 14.835938 C 19.398438 14.835938 20.238281 13.988281 20.246094 12.945312 C 20.25 11.894531 19.414062 11.035156 18.375 11.03125 C 17.347656 11.03125 16.507812 11.878906 16.503906 12.921875 C 16.5 13.191406 16.554688 13.457031 16.660156 13.699219 L 15.148438 15.503906 L 14.488281 15.503906 L 12.601562 13.132812 C 12.839844 12.746094 12.96875 12.292969 12.972656 11.832031 C 12.976562 11.164062 12.726562 10.539062 12.265625 10.066406 C 11.808594 9.59375 11.195312 9.332031 10.523438 9.328125 C 9.183594 9.328125 8.085938 10.4375 8.078125 11.800781 C 8.074219 12.464844 8.324219 13.09375 8.785156 13.566406 C 9.242188 14.039062 9.855469 14.300781 10.523438 14.308594 C 10.699219 14.308594 10.875 14.289062 11.042969 14.253906 L 12.035156 15.507812 L 10.769531 15.507812 C 8.980469 15.503906 6.796875 16.054688 6.796875 19.816406 L 6.796875 23.789062 C 6.796875 26.011719 8.585938 27.832031 10.773438 27.832031 L 18.351562 27.832031 C 20.539062 27.832031 22.328125 26.011719 22.328125 23.789062 L 22.328125 19.816406 C 22.328125 16.472656 20.144531 15.503906 18.351562 15.503906 Z M 18.753906 25.496094 L 10.371094 25.496094 C 9.757812 25.496094 9.238281 24.96875 9.238281 24.339844 L 9.242188 19.816406 L 9.242188 19.125 C 9.261719 18.515625 9.773438 18.011719 10.371094 18.011719 L 18.753906 18.011719 C 19.367188 18.011719 19.886719 18.539062 19.886719 19.164062 L 19.882812 23.695312 L 19.886719 23.695312 L 19.886719 24.339844 C 19.886719 24.96875 19.367188 25.496094 18.753906 25.496094 Z M 18.753906 25.496094 " fill-opacity="1" fill-rule="nonzero"/></g><path fill="#5271ff" d="M 12.871094 23.09375 C 12.867188 22.359375 12.863281 21.15625 12.859375 20.421875 C 12.855469 19.691406 13.394531 19.386719 14.011719 19.75 C 14.628906 20.113281 15.660156 20.707031 16.277344 21.070312 C 16.890625 21.4375 16.90625 22.035156 16.292969 22.40625 C 15.675781 22.777344 14.640625 23.382812 14.027344 23.753906 C 13.414062 24.125 12.875 23.824219 12.871094 23.09375 Z M 12.871094 23.09375 " fill-opacity="1" fill-rule="nonzero"/><g fill="#5271ff" fill-opacity="1"><g transform="translate(23.679366, 23.850544)"><g><path d="M 3.765625 0.15625 C 2.773438 0.15625 1.976562 -0.09375 1.375 -0.59375 C 0.769531 -1.101562 0.457031 -1.8125 0.4375 -2.71875 L 2.5 -2.71875 C 2.519531 -2.34375 2.632812 -2.050781 2.84375 -1.84375 C 3.050781 -1.632812 3.351562 -1.53125 3.75 -1.53125 C 4.125 -1.53125 4.40625 -1.597656 4.59375 -1.734375 C 4.78125 -1.878906 4.875 -2.078125 4.875 -2.328125 C 4.875 -2.585938 4.75 -2.789062 4.5 -2.9375 C 4.257812 -3.09375 3.875 -3.253906 3.34375 -3.421875 C 2.789062 -3.585938 2.332031 -3.757812 1.96875 -3.9375 C 1.601562 -4.113281 1.289062 -4.375 1.03125 -4.71875 C 0.78125 -5.070312 0.65625 -5.535156 0.65625 -6.109375 C 0.65625 -6.566406 0.78125 -6.972656 1.03125 -7.328125 C 1.289062 -7.691406 1.648438 -7.972656 2.109375 -8.171875 C 2.578125 -8.378906 3.109375 -8.484375 3.703125 -8.484375 C 4.242188 -8.484375 4.75 -8.382812 5.21875 -8.1875 C 5.6875 -7.988281 6.066406 -7.6875 6.359375 -7.28125 C 6.648438 -6.875 6.800781 -6.375 6.8125 -5.78125 L 4.78125 -5.78125 C 4.78125 -6.070312 4.6875 -6.316406 4.5 -6.515625 C 4.320312 -6.710938 4.054688 -6.8125 3.703125 -6.8125 C 3.390625 -6.8125 3.144531 -6.742188 2.96875 -6.609375 C 2.800781 -6.472656 2.71875 -6.289062 2.71875 -6.0625 C 2.71875 -5.789062 2.84375 -5.582031 3.09375 -5.4375 C 3.34375 -5.300781 3.726562 -5.148438 4.25 -4.984375 C 4.800781 -4.816406 5.257812 -4.644531 5.625 -4.46875 C 5.988281 -4.289062 6.300781 -4.023438 6.5625 -3.671875 C 6.820312 -3.316406 6.953125 -2.851562 6.953125 -2.28125 C 6.953125 -1.832031 6.828125 -1.421875 6.578125 -1.046875 C 6.328125 -0.679688 5.960938 -0.390625 5.484375 -0.171875 C 5.003906 0.046875 4.429688 0.15625 3.765625 0.15625 Z M 3.765625 0.15625 "/></g></g></g><g fill="#5271ff" fill-opacity="1"><g transform="translate(30.606135, 23.850544)"><g><path d="M 4.53125 -6.34375 C 5 -6.34375 5.421875 -6.226562 5.796875 -6 C 6.171875 -5.78125 6.460938 -5.472656 6.671875 -5.078125 C 6.878906 -4.691406 6.984375 -4.25 6.984375 -3.75 L 6.984375 0 L 5 0 L 5 -3.296875 C 5 -3.679688 4.90625 -3.988281 4.71875 -4.21875 C 4.53125 -4.457031 4.265625 -4.578125 3.921875 -4.578125 C 3.585938 -4.578125 3.316406 -4.457031 3.109375 -4.21875 C 2.898438 -3.988281 2.796875 -3.679688 2.796875 -3.296875 L 2.796875 0 L 0.8125 0 L 0.8125 -8.578125 L 2.796875 -8.578125 L 2.796875 -5.671875 C 3.285156 -6.117188 3.863281 -6.34375 4.53125 -6.34375 Z M 4.53125 -6.34375 "/></g></g></g><g fill="#5271ff" fill-opacity="1"><g transform="translate(37.830451, 23.850544)"><g><path d="M 3.78125 0.15625 C 3.175781 0.15625 2.609375 0.0234375 2.078125 -0.234375 C 1.554688 -0.492188 1.132812 -0.867188 0.8125 -1.359375 C 0.488281 -1.859375 0.328125 -2.4375 0.328125 -3.09375 C 0.328125 -3.75 0.488281 -4.320312 0.8125 -4.8125 C 1.132812 -5.300781 1.554688 -5.675781 2.078125 -5.9375 C 2.609375 -6.207031 3.175781 -6.34375 3.78125 -6.34375 C 4.375 -6.34375 4.929688 -6.207031 5.453125 -5.9375 C 5.972656 -5.675781 6.394531 -5.300781 6.71875 -4.8125 C 7.039062 -4.320312 7.203125 -3.75 7.203125 -3.09375 C 7.203125 -2.4375 7.039062 -1.859375 6.71875 -1.359375 C 6.394531 -0.867188 5.972656 -0.492188 5.453125 -0.234375 C 4.929688 0.0234375 4.375 0.15625 3.78125 0.15625 Z M 3.78125 -1.625 C 4.207031 -1.625 4.554688 -1.757812 4.828125 -2.03125 C 5.097656 -2.3125 5.234375 -2.664062 5.234375 -3.09375 C 5.234375 -3.519531 5.097656 -3.875 4.828125 -4.15625 C 4.554688 -4.4375 4.207031 -4.578125 3.78125 -4.578125 C 3.34375 -4.578125 2.988281 -4.4375 2.71875 -4.15625 C 2.445312 -3.875 2.3125 -3.519531 2.3125 -3.09375 C 2.3125 -2.664062 2.445312 -2.3125 2.71875 -2.03125 C 2.988281 -1.757812 3.34375 -1.625 3.78125 -1.625 Z M 3.78125 -1.625 "/></g></g></g><g fill="#5271ff" fill-opacity="1"><g transform="translate(44.900043, 23.850544)"><g><path d="M 7.265625 -2.484375 L 8.53125 -6.1875 L 10.484375 -6.1875 L 8.109375 0 L 6.546875 0 L 5.25 -3.53125 L 3.9375 0 L 2.421875 0 L 0.03125 -6.1875 L 2 -6.1875 L 3.265625 -2.53125 L 4.578125 -6.1875 L 5.921875 -6.1875 Z M 7.265625 -2.484375 "/></g></g></g><g fill="#000000" fill-opacity="1"><g transform="translate(53.083941, 23.850544)"><g><path d="M 3.78125 0 L 1.703125 0 L 2.9375 -6.453125 L 0.90625 -6.453125 L 1.265625 -8.328125 L 7.421875 -8.328125 L 7.0625 -6.453125 L 5.03125 -6.453125 Z M 3.78125 0 "/></g></g></g><g fill="#000000" fill-opacity="1"><g transform="translate(59.260895, 23.850544)"><g><path d="M 3.21875 -2.28125 L 5.390625 -6.1875 L 7.53125 -6.1875 L 3.734375 0 L 1.96875 0 L 0.5625 -6.1875 L 2.53125 -6.1875 Z M 3.21875 -2.28125 "/></g></g></g><g fill="#000000" fill-opacity="1"><g transform="translate(25.794737, 27.115757)"><g><path d="M 0.953125 0 L 0.59375 -1.234375 L 0.515625 0 L 0.09375 0 L 0.15625 -0.796875 C 0.164062 -1.109375 0.175781 -1.367188 0.1875 -1.578125 L 0.90625 -1.578125 L 1.15625 -0.65625 L 1.390625 -1.578125 L 2.109375 -1.578125 C 2.117188 -1.367188 2.132812 -1.109375 2.15625 -0.796875 L 2.203125 0 L 1.78125 0 L 1.703125 -1.234375 L 1.34375 0 Z M 0.953125 0 "/></g></g></g><g fill="#000000" fill-opacity="1"><g transform="translate(28.696962, 27.115757)"><g><path d="M 0.890625 0.015625 C 0.609375 0.015625 0.394531 -0.0703125 0.25 -0.25 C 0.132812 -0.394531 0.078125 -0.570312 0.078125 -0.78125 C 0.078125 -0.988281 0.132812 -1.171875 0.25 -1.328125 C 0.394531 -1.515625 0.609375 -1.609375 0.890625 -1.609375 C 1.160156 -1.609375 1.375 -1.515625 1.53125 -1.328125 C 1.644531 -1.171875 1.703125 -0.988281 1.703125 -0.78125 C 1.703125 -0.570312 1.644531 -0.394531 1.53125 -0.25 C 1.375 -0.0703125 1.160156 0.015625 0.890625 0.015625 Z M 0.59375 -0.421875 C 0.664062 -0.335938 0.765625 -0.296875 0.890625 -0.296875 C 1.015625 -0.296875 1.109375 -0.335938 1.171875 -0.421875 C 1.242188 -0.515625 1.28125 -0.632812 1.28125 -0.78125 C 1.28125 -0.925781 1.242188 -1.046875 1.171875 -1.140625 C 1.109375 -1.242188 1.015625 -1.296875 0.890625 -1.296875 C 0.765625 -1.296875 0.664062 -1.242188 0.59375 -1.140625 C 0.519531 -1.046875 0.484375 -0.925781 0.484375 -0.78125 C 0.484375 -0.632812 0.519531 -0.515625 0.59375 -0.421875 Z M 0.59375 -0.421875 "/></g></g></g><g fill="#000000" fill-opacity="1"><g transform="translate(31.076538, 27.115757)"><g><path d="M 0.125 -1.578125 L 0.75 -1.578125 C 1.03125 -1.578125 1.242188 -1.492188 1.390625 -1.328125 C 1.503906 -1.179688 1.5625 -1.003906 1.5625 -0.796875 C 1.5625 -0.585938 1.503906 -0.410156 1.390625 -0.265625 C 1.234375 -0.0859375 1.019531 0 0.75 0 L 0.125 0 Z M 0.546875 -1.265625 L 0.546875 -0.3125 L 0.796875 -0.3125 C 0.910156 -0.3125 1 -0.351562 1.0625 -0.4375 C 1.125 -0.53125 1.15625 -0.648438 1.15625 -0.796875 C 1.15625 -1.109375 1.035156 -1.265625 0.796875 -1.265625 Z M 0.546875 -1.265625 "/></g></g></g><g fill="#000000" fill-opacity="1"><g transform="translate(33.32141, 27.115757)"><g><path d="M 0.125 -1.578125 L 1.3125 -1.578125 L 1.3125 -1.265625 L 0.546875 -1.265625 L 0.546875 -0.953125 L 1.125 -0.953125 L 1.125 -0.625 L 0.546875 -0.625 L 0.546875 -0.3125 L 1.3125 -0.3125 L 1.3125 0 L 0.125 0 Z M 0.125 -1.578125 "/></g></g></g><g fill="#000000" fill-opacity="1"><g transform="translate(35.334595, 27.115757)"><g><path d="M 1.5 -1.015625 C 1.5 -0.929688 1.472656 -0.84375 1.421875 -0.75 C 1.378906 -0.65625 1.3125 -0.582031 1.21875 -0.53125 L 1.46875 0 L 1.015625 0 L 0.796875 -0.453125 L 0.546875 -0.453125 L 0.546875 0 L 0.125 0 L 0.125 -1.578125 L 0.859375 -1.578125 C 1.066406 -1.578125 1.222656 -1.523438 1.328125 -1.421875 C 1.441406 -1.316406 1.5 -1.179688 1.5 -1.015625 Z M 0.546875 -0.78125 L 0.84375 -0.78125 C 0.914062 -0.78125 0.972656 -0.800781 1.015625 -0.84375 C 1.054688 -0.882812 1.078125 -0.941406 1.078125 -1.015625 C 1.078125 -1.085938 1.054688 -1.144531 1.015625 -1.1875 C 0.972656 -1.238281 0.914062 -1.265625 0.84375 -1.265625 L 0.546875 -1.265625 Z M 0.546875 -0.78125 "/></g></g></g><g fill="#000000" fill-opacity="1"><g transform="translate(37.498646, 27.115757)"><g><path d="M 0.546875 -0.96875 L 0.546875 0 L 0.125 0 L 0.125 -1.578125 L 0.59375 -1.578125 L 1.21875 -0.640625 L 1.21875 -1.578125 L 1.640625 -1.578125 L 1.640625 0 L 1.171875 0 Z M 0.546875 -0.96875 "/></g></g></g><g fill="#000000" fill-opacity="1"><g transform="translate(39.866959, 27.115757)"><g/></g></g><g fill="#000000" fill-opacity="1"><g transform="translate(40.988409, 27.115757)"><g/></g></g><g fill="#000000" fill-opacity="1"><g transform="translate(42.107675, 27.115757)"><g><path d="M 1.609375 -0.390625 L 1.828125 -1.578125 L 2.25 -1.578125 L 1.921875 0 L 1.359375 0 L 1.125 -0.859375 L 0.90625 0 L 0.34375 0 L 0.015625 -1.578125 L 0.453125 -1.578125 L 0.65625 -0.390625 L 0.9375 -1.578125 L 1.3125 -1.578125 Z M 1.609375 -0.390625 "/></g></g></g><g fill="#000000" fill-opacity="1"><g transform="translate(44.980265, 27.115757)"><g><path d="M 1.6875 0 L 1.25 0 L 1.125 -0.328125 L 0.578125 -0.328125 L 0.453125 0 L 0.015625 0 L 0.53125 -1.578125 L 1.171875 -1.578125 Z M 1.0625 -0.65625 L 0.84375 -1.296875 L 0.640625 -0.65625 Z M 1.0625 -0.65625 "/></g></g></g><g fill="#000000" fill-opacity="1"><g transform="translate(47.289796, 27.115757)"><g><path d="M 0.90625 0 L 0.484375 0 L 0.484375 -1.265625 L 0.03125 -1.265625 L 0.03125 -1.578125 L 1.359375 -1.578125 L 1.359375 -1.265625 L 0.90625 -1.265625 Z M 0.90625 0 "/></g></g></g><g fill="#000000" fill-opacity="1"><g transform="translate(49.292203, 27.115757)"><g><path d="M 0.890625 -0.296875 C 1.003906 -0.296875 1.09375 -0.316406 1.15625 -0.359375 C 1.21875 -0.398438 1.25 -0.460938 1.25 -0.546875 L 1.671875 -0.546875 C 1.640625 -0.378906 1.554688 -0.242188 1.421875 -0.140625 C 1.285156 -0.0351562 1.109375 0.015625 0.890625 0.015625 C 0.617188 0.015625 0.40625 -0.0703125 0.25 -0.25 C 0.132812 -0.394531 0.078125 -0.570312 0.078125 -0.78125 C 0.078125 -0.988281 0.132812 -1.171875 0.25 -1.328125 C 0.40625 -1.515625 0.617188 -1.609375 0.890625 -1.609375 C 1.109375 -1.609375 1.285156 -1.554688 1.421875 -1.453125 C 1.554688 -1.359375 1.640625 -1.222656 1.671875 -1.046875 L 1.25 -1.046875 C 1.25 -1.128906 1.21875 -1.191406 1.15625 -1.234375 C 1.09375 -1.273438 1.007812 -1.296875 0.90625 -1.296875 C 0.78125 -1.296875 0.675781 -1.242188 0.59375 -1.140625 C 0.519531 -1.046875 0.484375 -0.925781 0.484375 -0.78125 C 0.484375 -0.632812 0.519531 -0.515625 0.59375 -0.421875 C 0.675781 -0.335938 0.773438 -0.296875 0.890625 -0.296875 Z M 0.890625 -0.296875 "/></g></g></g><g fill="#000000" fill-opacity="1"><g transform="translate(51.63945, 27.115757)"><g><path d="M 0.546875 0 L 0.125 0 L 0.125 -1.578125 L 0.546875 -1.578125 L 0.546875 -0.921875 L 1.109375 -0.921875 L 1.109375 -1.578125 L 1.53125 -1.578125 L 1.53125 0 L 1.109375 0 L 1.109375 -0.59375 L 0.546875 -0.59375 Z M 0.546875 0 "/></g></g></g><g fill="#000000" fill-opacity="1"><g transform="translate(53.905875, 27.115757)"><g/></g></g><g fill="#000000" fill-opacity="1"><g transform="translate(55.027325, 27.115757)"><g><path d="M 1.6875 0 L 1.25 0 L 1.125 -0.328125 L 0.578125 -0.328125 L 0.453125 0 L 0.015625 0 L 0.53125 -1.578125 L 1.171875 -1.578125 Z M 1.0625 -0.65625 L 0.84375 -1.296875 L 0.640625 -0.65625 Z M 1.0625 -0.65625 "/></g></g></g><g fill="#000000" fill-opacity="1"><g transform="translate(57.336856, 27.115757)"><g><path d="M 0.125 0 L 0.125 -1.578125 L 0.84375 -1.578125 C 1.050781 -1.578125 1.210938 -1.519531 1.328125 -1.40625 C 1.441406 -1.300781 1.5 -1.171875 1.5 -1.015625 C 1.5 -0.859375 1.441406 -0.722656 1.328125 -0.609375 C 1.210938 -0.503906 1.050781 -0.453125 0.84375 -0.453125 L 0.546875 -0.453125 L 0.546875 0 Z M 0.546875 -0.78125 L 0.84375 -0.78125 C 0.914062 -0.78125 0.972656 -0.800781 1.015625 -0.84375 C 1.054688 -0.882812 1.078125 -0.941406 1.078125 -1.015625 C 1.078125 -1.085938 1.054688 -1.144531 1.015625 -1.1875 C 0.972656 -1.238281 0.914062 -1.265625 0.84375 -1.265625 L 0.546875 -1.265625 Z M 0.546875 -0.78125 "/></g></g></g><g fill="#000000" fill-opacity="1"><g transform="translate(59.487436, 27.115757)"><g><path d="M 0.125 0 L 0.125 -1.578125 L 0.84375 -1.578125 C 1.050781 -1.578125 1.210938 -1.519531 1.328125 -1.40625 C 1.441406 -1.300781 1.5 -1.171875 1.5 -1.015625 C 1.5 -0.859375 1.441406 -0.722656 1.328125 -0.609375 C 1.210938 -0.503906 1.050781 -0.453125 0.84375 -0.453125 L 0.546875 -0.453125 L 0.546875 0 Z M 0.546875 -0.78125 L 0.84375 -0.78125 C 0.914062 -0.78125 0.972656 -0.800781 1.015625 -0.84375 C 1.054688 -0.882812 1.078125 -0.941406 1.078125 -1.015625 C 1.078125 -1.085938 1.054688 -1.144531 1.015625 -1.1875 C 0.972656 -1.238281 0.914062 -1.265625 0.84375 -1.265625 L 0.546875 -1.265625 Z M 0.546875 -0.78125 "/></g></g></g></svg>